Coordinates
version=1
nRows=18
nColumns=22
inDegrees=yes

Units are S.I. units (second, meters, Newtons, ...)
If the header above contains a line with 'inDegrees', this indicates whether rotational values are in degrees (yes) or radians (no).

endheader
time	pelvis_tilt	pelvis_list	pelvis_rotation	pelvis_tx	pelvis_ty	pelvis_tz	hip_flexion_r	hip_adduction_r	hip_rotation_r	knee_angle_r	ankle_angle_r	subtalar_angle_r	hip_flexion_l	hip_adduction_l	hip_rotation_l	knee_angle_l	ankle_angle_l	subtalar_angle_l	lumbar_extension	lumbar_bending	lumbar_rotation
      1.55000000	     -2.58889955	     -3.14594774	     -6.12030383	     -1.91720376	      1.01365787	     -0.06525172	      8.22306550	      0.85818635	     -4.73531324	    -19.59103284	     10.11978517	      3.85414379	     -0.11989501	     -5.46311797	    -14.54467985	     -8.44547467	     10.70171665	      0.31994771	     -2.72800648	     -1.11782962	     -1.86477898
      1.56000000	     -2.63816026	     -3.05688460	     -6.17982726	     -1.91695353	      1.01344516	     -0.06465526	      8.28213349	      0.81640805	     -4.66105893	    -19.62894318	     10.26099314	      3.74946998	     -0.14448792	     -5.39427736	    -14.58286639	     -8.34162736	     10.68476611	      0.37641074	     -2.67266141	     -1.19675618	     -1.90265858
      1.57000000	     -2.68749595	     -2.94861043	     -6.25986733	     -1.91676212	      1.01322586	     -0.06399483	      8.37851116	      0.75666081	     -4.57597919	    -19.72246957	     10.35909148	      3.58579764	     -0.15730242	     -5.30966795	    -14.65996681	     -8.25545350	     10.64858557	      0.46815261	     -2.63255377	     -1.29166004	     -1.93320598
      1.58000000	     -2.74301697	     -2.86713570	     -6.33257405	     -1.91650012	      1.01301358	     -0.06326281	      8.45391525	      0.73265527	     -4.49416537	    -19.77454960	     10.44255086	      3.40264670	     -0.17389861	     -5.25859421	    -14.73780740	     -8.16099652	     10.63477358	      0.56266236	     -2.58227957	     -1.35465738	     -1.96655363
      1.59000000	     -2.78394687	     -2.79751497	     -6.40600442	     -1.91624555	      1.01282989	     -0.06247674	      8.51913351	      0.72318733	     -4.39946912	    -19.83915443	     10.52339963	      3.25262472	     -0.19936398	     -5.22272108	    -14.80411711	     -8.08234836	     10.61033522	      0.63300441	     -2.56118065	     -1.40022073	     -2.00297117
      1.60000000	     -2.82607793	     -2.75222289	     -6.45908688	     -1.91592870	      1.01266400	     -0.06164657	      8.55790963	      0.74277500	     -4.31557358	    -19.86452569	     10.59795846	      3.13323696	     -0.22237606	     -5.21785406	    -14.85509594	     -8.01053084	     10.59230734	      0.68545231	     -2.53762261	     -1.41524203	     -2.06097326
      1.61000000	     -2.86389766	     -2.69978842	     -6.52046192	     -1.91564265	      1.01250968	     -0.06074174	      8.61317446	      0.75885806	     -4.23020647	    -19.92197415	     10.59996241	      2.88181338	     -0.22930473	     -5.21409687	    -14.93606994	     -7.97616946	     10.59124353	      0.79728116	     -2.52976693	     -1.43891795	     -2.10655491
      1.62000000	     -2.89093374	     -2.67674088	     -6.53999980	     -1.91528481	      1.01239103	     -0.05983399	      8.61454808	      0.80504217	     -4.16218049	    -19.91952565	     10.63683307	      2.77250099	     -0.23297562	     -5.24609204	    -14.96260642	     -7.97158747	     10.58134133	      0.84160918	     -2.53224808	     -1.42378509	     -2.20454652
      1.63000000	     -2.91568943	     -2.66526929	     -6.56594330	     -1.91492150	      1.01227509	     -0.05885612	      8.62171079	      0.86723558	     -4.11431952	    -19.93304510	     10.60512181	      2.48410021	     -0.23097709	     -5.29692586	    -15.00826407	     -7.98807054	     10.61490789	      0.95646347	     -2.54462652	     -1.39346775	     -2.28426294
      1.64000000	     -2.92872172	     -2.64255979	     -6.56387621	     -1.91451347	      1.01218398	     -0.05786426	      8.59325741	      0.91583657	     -4.06879972	    -19.91225310	     10.62639005	      2.38592997	     -0.21736323	     -5.34011002	    -15.01604007	     -8.04379480	     10.61132596	      0.99298336	     -2.56560510	     -1.37521786	     -2.39180590
      1.65000000	     -2.93642692	     -2.64387735	     -6.55435654	     -1.91407441	      1.01209911	     -0.05682113	      8.55272528	      0.99248435	     -4.05724861	    -19.88739510	     10.57830162	      2.08814587	     -0.20697980	     -5.41355016	    -15.01210654	     -8.11101574	     10.65855513	      1.10983974	     -2.59645558	     -1.32526638	     -2.50363765
      1.66000000	     -2.93741838	     -2.64357875	     -6.52826952	     -1.91358645	      1.01201803	     -0.05574684	      8.48968399	      1.06683646	     -4.05290376	    -19.84527190	     10.58554744	      1.91175571	     -0.18764881	     -5.49091659	    -14.99940282	     -8.20908021	     10.69610428	      1.17787161	     -2.63065014	     -1.27521630	     -2.62273761
      1.67000000	     -2.93752019	     -2.64186364	     -6.49904811	     -1.91303993	      1.01193273	     -0.05463024	      8.41210637	      1.14062956	     -4.06398203	    -19.78755872	     10.63295840	      1.78018642	     -0.16385716	     -5.57052069	    -14.98919210	     -8.32189956	     10.72878356	      1.22764575	     -2.66051377	     -1.22068941	     -2.73493076
      1.68000000	     -2.93211343	     -2.64574927	     -6.45860202	     -1.91246240	      1.01185642	     -0.05347348	      8.31791632	      1.22344801	     -4.07357184	    -19.71643424	     10.65084180	      1.61117281	     -0.14016558	     -5.65998232	    -14.96024098	     -8.44731634	     10.77501519	      1.30120551	     -2.69691590	     -1.15636560	     -2.85951067
      1.69000000	     -2.92043275	     -2.65252351	     -6.41752132	     -1.91186176	      1.01179127	     -0.05225184	      8.20992792	      1.31267710	     -4.09061373	    -19.63511120	     10.64647378	      1.39205050	     -0.11604654	     -5.75786591	    -14.91383058	     -8.59195648	     10.82674511	      1.41170816	     -2.74238083	     -1.09238456	     -2.94760848
      1.70000000	     -2.91470921	     -2.65816492	     -6.37934259	     -1.91121384	      1.01171285	     -0.05097987	      8.09992795	      1.40439422	     -4.09796794	    -19.54543024	     10.68235105	      1.22402702	     -0.08197364	     -5.85976826	    -14.88564107	     -8.74975698	     10.87529077	      1.50304234	     -2.77606463	     -1.02162638	     -3.03240802
      1.71000000	     -2.91168575	     -2.67125538	     -6.34311704	     -1.91052379	      1.01163233	     -0.04965956	      7.98743946	      1.50665585	     -4.10263403	    -19.45382656	     10.71824476	      1.06698000	     -0.04196254	     -5.97377504	    -14.85957037	     -8.91995751	     10.93079257	      1.59822128	     -2.80130318	     -0.93637331	     -3.10889265
      1.72000000	     -2.91381314	     -2.68991764	     -6.31089172	     -1.90982618	      1.01154948	     -0.04826069	      7.87668124	      1.62034713	     -4.10116467	    -19.35551555	     10.75040415	      0.90958366	      0.01170872	     -6.10217759	    -14.83431381	     -9.11074708	     10.99341211	      1.70492522	     -2.82417447	     -0.84855348	     -3.16986230
